# xmcd
#
# Track frame offsets:
#	150
#	25180
#	45102
#	69802
#	95655
#	119550
#	143785
#	165742
#	185745
#	208750
#
# Disc length: 3090 seconds
#
# Revision: 2
# Processed by: cddbd v1.5.2PL0 Copyright (c) Steve Scherf et al.
# Submitted via: EZCDAudioConverter 8.0.2.1
#
DISCID=880c100a
DTITLE=Tuấn Vũ, Mỹ Huyền - Lối Về Đất Mẹ
DYEAR=1994
DGENRE=country
TTITLE0=Mỹ Huyền - Xin yêu tôi bằng tình người
TTITLE1=Tuấn Vũ - Tình em sông dài
TTITLE2=Mỹ Huyền - Mưa trên phố Huế
TTITLE3=Tuấn Vũ - Hương ca vô tận
TTITLE4=Mỹ Huyền - Những ngày xưa thân ái
TTITLE5=Tuấn Vũ - Lối Về Đất Mẹ
TTITLE6=Mỹ Huyền - Khu phố ngày xưa
TTITLE7=Tuấn Vũ - Đêm nguyện cầu
TTITLE8=Mỹ Huyền - Sương trắng miền quê ngoại
TTITLE9=Tuấn Vũ - Nỗi lòng người đi
EXTD=
EXTT0=
EXTT1=
EXTT2=
EXTT3=
EXTT4=
EXTT5=
EXTT6=
EXTT7=
EXTT8=
EXTT9=
PLAYORDER=
